<svg xmlns="http://www.w3.org/2000/svg" width="512" height="512" viewBox="0 0 901.359 901.359"><path d="M675.973 676.02c-62.223 0-112.67 50.447-112.67 112.67s50.447 112.67 112.67 112.67 112.67-50.447 112.67-112.67-50.45-112.67-112.67-112.67zM394.298 676.02c-62.221 0-112.669 50.447-112.669 112.67s50.448 112.67 112.669 112.67c62.223 0 112.67-50.447 112.67-112.67s-50.447-112.67-112.67-112.67zM890.807 192.386c-10.729-14.718-27.674-23.382-45.826-23.382H265.895L222.377 38.482C214.73 15.486 193.22 0 168.959 0H56.343C25.204 0 .01 25.169.01 56.335c0 31.165 25.195 56.335 56.333 56.335h72.015l156.13 468.503c7.704 22.996 29.214 38.514 53.475 38.514h394.348c24.371 0 45.77-15.518 53.475-38.514l112.67-338.037c5.718-17.163 2.858-36.034-7.649-50.75z" fill="#FFF"/></svg>