<svg xmlns="http://www.w3.org/2000/svg" viewBox="0 0 1000 1000"><path d="M868.5 170.1c-77-65.9-184.7-104-310-104C232 66.1 10 313.1 10 313.1l62.6 97.4s34.6 2.8 16.3-54.5c15.8-29.3 46.8-68.8 107.3-114.3v648.5c-26.1 7.2-60.5 20.8-37 43.8h179.7c23.7-23.3-13.7-37.3-36.4-43.8v-153s123.2 47.4 256.1 47.4c116.7 0 222.9-34 301.9-95.5 79-61.1 129.9-152.4 129.6-256.8.1-102.5-44.6-196.6-121.6-262.2zm-95.3 467.7c-54.6 52.9-134.1 86.3-225.7 86.2-102.2 0-188.3-19.4-245.1-46.8V537.8 190.6c62.3-43.4 163.5-70.2 245.1-70 99.2.1 177.1 36.8 229.8 92.6 52.6 56.1 81.3 130.6 81.6 217.2-.4 84.6-31.1 154.1-85.7 207.4z" fill="#fff"/></svg>