<?xml version="1.0" encoding="UTF-8" standalone="no"?>
<svg width="100%" height="100%" viewBox="0 0 2223 2223" version="1.1" xmlns="http://www.w3.org/2000/svg" xmlns:xlink="http://www.w3.org/1999/xlink">
    <g id="Page-1" stroke="none" stroke-width="1" fill="none" fill-rule="evenodd">
        <g id="tumblr" transform="translate(-1.555560, -1.555560)" fill-rule="nonzero">
            <g id="Group" transform="translate(0.948834, 0.959112)" fill="#37475C">
                <path d="M2100.1853,2222.82494 C2167.9113,2222.82494 2222.83147,2167.90513 2222.83147,2100.17958 L2222.83147,123.249756 C2222.83147,55.4992316 2167.9113,0.596078344 2100.1853,0.596078344 L123.250605,0.596078344 C55.4996286,0.596078344 0.604435295,55.4992316 0.604435295,123.249756 L0.604435295,2100.17958 C0.604435295,2167.90513 55.4996286,2222.82494 123.250605,2222.82494 L2100.1853,2222.82494 Z" id="Shape"></path>
            </g>
            <path d="M1483.61817,1668.54821 C1440.65132,1714.43626 1341.07891,1745.58287 1251.91448,1747.05314 L1242.12555,1747.05314 C942.576433,1747.05314 877.516779,1526.82147 877.516779,1398.26917 L877.516779,1041.12785 L759.507891,1041.12785 C752.945593,1041.12785 746.65207,1038.52098 742.011824,1033.88074 C737.371579,1029.24049 734.764716,1022.94697 734.764716,1016.38467 L734.764716,847.72869 C734.776408,829.939459 745.989018,814.085279 762.757972,808.147348 C916.537095,753.979334 964.765973,619.778079 971.904544,517.768101 C973.839115,490.509983 988.096911,477.296856 1011.75673,477.296856 L1187.64801,477.296856 C1201.31328,477.296856 1212.39118,488.374753 1212.39118,502.040031 L1212.39118,787.679577 L1418.28767,787.679577 C1431.93034,787.668844 1443.00753,798.702767 1443.05019,812.345369 L1443.05019,1015.03047 C1443.04506,1021.59277 1440.43328,1027.88426 1435.78941,1032.52087 C1431.14553,1037.15749 1424.84997,1039.75943 1418.28767,1039.7543 L1211.44324,1039.7543 L1211.44324,1370.04377 C1211.44324,1452.97886 1266.0949,1475.86485 1299.85318,1475.86485 C1332.23791,1475.09102 1364.11966,1465.2247 1380.09922,1458.80193 C1391.95815,1454.04288 1402.38549,1450.88953 1411.71013,1453.23036 C1420.39635,1455.39708 1426.10334,1461.54902 1429.95314,1472.76954 L1484.52741,1632.17826 C1488.95758,1644.94644 1492.76869,1658.77863 1483.61817,1668.54821 Z" id="Shape" fill="#FFFFFF"></path>
        </g>
    </g>
</svg>
