<svg viewBox="0 0 2223 2223" xmlns="http://www.w3.org/2000/svg"><g fill-rule="nonzero" fill="none"><path d="M2099.579 2222.228c67.726 0 122.646-54.92 122.646-122.645V122.653c0-67.75-54.92-122.653-122.646-122.653H122.644C54.893 0-.002 54.903-.002 122.653v1976.93c0 67.726 54.895 122.645 122.646 122.645h1976.935z" fill="#37475C"/><path d="M1482.063 1666.993c-42.967 45.888-142.54 77.034-231.704 78.505h-9.789c-299.55 0-364.609-220.232-364.609-348.784v-357.142H757.952a24.743 24.743 0 0 1-24.743-24.743V846.173a42.019 42.019 0 0 1 27.993-39.581c153.78-54.168 202.008-188.37 209.147-290.38 1.935-27.258 16.192-40.47 39.852-40.47h175.891c13.666 0 24.744 11.077 24.744 24.742v285.64h205.896c13.643-.01 24.72 11.023 24.763 24.666v202.685a24.743 24.743 0 0 1-24.763 24.724h-206.844v330.29c0 82.934 54.651 105.82 88.41 105.82 32.384-.774 64.266-10.64 80.246-17.063 11.859-4.759 22.286-7.912 31.61-5.571 8.687 2.167 14.394 8.318 18.244 19.539l54.574 159.409c4.43 12.768 8.241 26.6-.91 36.37z" fill="#FFF"/></g></svg>